<?xml version="1.0" standalone="no"?>
<!DOCTYPE svg PUBLIC "-//W3C//DTD SVG 20010904//EN"
 "http://www.w3.org/TR/2001/REC-SVG-20010904/DTD/svg10.dtd">
<svg version="1.0" xmlns="http://www.w3.org/2000/svg"
 width="194.000000pt" height="215.000000pt" viewBox="0 0 194.000000 215.000000"
 preserveAspectRatio="xMidYMid meet">

<g transform="translate(0.000000,215.000000) scale(0.100000,-0.100000)"
fill="#000000" stroke="none">
<path d="M1003 1962 c-135 -48 -301 -198 -420 -380 -143 -218 -246 -535 -247
-767 -1 -101 1 -115 27 -168 68 -138 228 -163 427 -66 98 47 152 84 247 166
40 35 74 59 76 55 3 -4 10 -49 17 -100 15 -106 9 -216 -16 -285 l-17 -49 -45
7 c-140 21 -244 -6 -289 -74 -42 -63 -25 -116 49 -156 72 -39 161 -45 222 -15
52 25 111 87 147 155 24 45 24 45 79 46 77 1 145 12 142 24 -1 5 -42 8 -93 6
-86 -3 -91 -2 -85 16 33 84 33 219 1 453 -29 209 -31 296 -10 367 46 154 196
236 310 169 115 -68 140 -201 65 -347 -20 -41 -26 -59 -16 -59 19 0 64 96 77
164 26 143 -55 261 -209 301 -133 36 -262 -36 -330 -183 -23 -50 -26 -70 -27
-162 0 -58 4 -136 9 -173 l8 -68 -48 -45 c-80 -75 -158 -131 -241 -176 -69
-38 -86 -43 -144 -43 -55 0 -72 4 -108 28 -89 59 -110 166 -70 360 62 299 196
573 364 743 71 72 183 152 243 172 28 10 35 8 60 -13 25 -21 27 -29 25 -87 -2
-71 -21 -134 -59 -191 -30 -46 -22 -64 11 -25 41 48 67 134 68 228 2 159 -68
219 -200 172z m74 -1616 c11 -11 -68 -115 -110 -146 -71 -52 -150 -51 -190 2
-14 19 -18 34 -13 54 9 34 58 81 100 94 32 10 202 7 213 -4z"/>
</g>
</svg>
